<svg width="20" height="20" viewBox="0 0 20 20" fill="none" xmlns="http://www.w3.org/2000/svg">
<path d="M10.0607 4.68235C7.3649 4.68235 5.19044 6.85729 5.19044 9.55371C5.19044 12.2501 7.3649 14.4251 10.0607 14.4251C12.7565 14.4251 14.931 12.2501 14.931 9.55371C14.931 6.85729 12.7565 4.68235 10.0607 4.68235ZM10.0607 12.7207C8.3186 12.7207 6.8944 11.3004 6.8944 9.55371C6.8944 7.80697 8.31437 6.38669 10.0607 6.38669C11.8071 6.38669 13.227 7.80697 13.227 9.55371C13.227 11.3004 11.8028 12.7207 10.0607 12.7207ZM16.2662 4.48309C16.2662 5.1148 15.7575 5.61931 15.1302 5.61931C14.4986 5.61931 13.9942 5.11056 13.9942 4.48309C13.9942 3.85562 14.5029 3.34686 15.1302 3.34686C15.7575 3.34686 16.2662 3.85562 16.2662 4.48309ZM19.4918 5.63627C19.4198 4.11424 19.0722 2.76603 17.9574 1.65524C16.8469 0.544451 15.499 0.196799 13.9773 0.120485C12.409 0.0314528 7.70823 0.0314528 6.13991 0.120485C4.62245 0.19256 3.27454 0.540211 2.15977 1.651C1.04499 2.76179 0.70165 4.11 0.625353 5.63203C0.536341 7.2007 0.536341 11.9025 0.625353 13.4711C0.697411 14.9932 1.04499 16.3414 2.15977 17.4522C3.27454 18.563 4.61821 18.9106 6.13991 18.9869C7.70823 19.076 12.409 19.076 13.9773 18.9869C15.499 18.9149 16.8469 18.5672 17.9574 17.4522C19.068 16.3414 19.4155 14.9932 19.4918 13.4711C19.5808 11.9025 19.5808 7.20494 19.4918 5.63627ZM17.4657 15.1543C17.1351 15.9853 16.4951 16.6255 15.66 16.9604C14.4096 17.4564 11.4425 17.342 10.0607 17.342C8.67889 17.342 5.70756 17.4522 4.46138 16.9604C3.6306 16.6297 2.99055 15.9895 2.65569 15.1543C2.15977 13.9036 2.27421 10.9358 2.27421 9.55371C2.27421 8.17158 2.164 5.19959 2.65569 3.95313C2.98631 3.12216 3.62636 2.48197 4.46138 2.14704C5.7118 1.651 8.67889 1.76547 10.0607 1.76547C11.4425 1.76547 14.4139 1.65524 15.66 2.14704C16.4908 2.47773 17.1309 3.11792 17.4657 3.95313C17.9617 5.20383 17.8472 8.17158 17.8472 9.55371C17.8472 10.9358 17.9617 13.9078 17.4657 15.1543Z" fill="#F0F5F4"/>
</svg>
