<svg width="17" height="19" viewBox="0 0 17 19" fill="none" xmlns="http://www.w3.org/2000/svg">
<path d="M8.14699 17.4163C7.9915 17.4163 7.85823 17.3636 7.74717 17.258C7.63611 17.1525 7.55281 17.0139 7.49728 16.8424C7.28627 16.1035 7.01972 15.4108 6.69764 14.7643C6.38667 14.1177 5.94798 13.359 5.38157 12.4882C4.81516 11.6174 4.35425 10.7861 3.99886 9.99447C3.65457 9.2028 3.48242 8.2462 3.48242 7.12467C3.48242 5.58092 3.93222 4.27467 4.83181 3.20592C5.74252 2.12398 6.84757 1.58301 8.14699 1.58301C9.44641 1.58301 10.5459 2.12398 11.4455 3.20592C12.3562 4.27467 12.8116 5.58092 12.8116 7.12467C12.8116 8.32537 12.6172 9.32815 12.2285 10.133C11.8509 10.9247 11.4122 11.7097 10.9124 12.4882C10.3127 13.4382 9.85733 14.2299 9.54636 14.8632C9.2465 15.4834 8.99661 16.1431 8.7967 16.8424C8.74117 17.0271 8.65232 17.1722 8.53015 17.2778C8.41909 17.3702 8.29137 17.4163 8.14699 17.4163ZM8.14699 9.10384C8.61345 9.10384 9.00771 8.91252 9.32979 8.52988C9.65187 8.14724 9.81291 7.67884 9.81291 7.12467C9.81291 6.57051 9.65187 6.1021 9.32979 5.71947C9.00771 5.33683 8.61345 5.14551 8.14699 5.14551C7.68053 5.14551 7.28627 5.33683 6.96419 5.71947C6.64211 6.1021 6.48107 6.57051 6.48107 7.12467C6.48107 7.67884 6.64211 8.14724 6.96419 8.52988C7.28627 8.91252 7.68053 9.10384 8.14699 9.10384Z" fill="#F0F5F4"/>
</svg>
