<svg width="16" height="14" viewBox="0 0 16 14" fill="none" xmlns="http://www.w3.org/2000/svg">
<path d="M15.682 4.62292C15.8038 4.5099 15.985 4.61562 15.985 4.79427V12.25C15.985 13.2161 15.3134 14 14.4857 14H1.49151C0.66376 14 -0.0078125 13.2161 -0.0078125 12.25V4.79792C-0.0078125 4.61562 0.170232 4.51354 0.295176 4.62656C0.994861 5.26094 1.92257 6.06667 5.10864 8.76823C5.76771 9.32969 6.87971 10.5109 7.98859 10.5036C9.10371 10.5146 10.2376 9.30781 10.8717 8.76823C14.0577 6.06667 14.9823 5.25729 15.682 4.62292ZM7.98859 9.33333C8.71326 9.34792 9.75655 8.26875 10.2813 7.82396C14.4263 4.31302 14.7418 4.00677 15.6976 3.13177C15.8788 2.96771 15.985 2.7125 15.985 2.44271V1.75C15.985 0.783854 15.3134 0 14.4857 0H1.49151C0.66376 0 -0.0078125 0.783854 -0.0078125 1.75V2.44271C-0.0078125 2.7125 0.0983897 2.96406 0.279558 3.13177C1.23538 4.00312 1.55086 4.31302 5.69587 7.82396C6.22064 8.26875 7.26392 9.34792 7.98859 9.33333Z" fill="#F0F5F4"/>
</svg>
