<svg width="17" height="19" viewBox="0 0 17 19" fill="none" xmlns="http://www.w3.org/2000/svg">
<path d="M16.3707 13.4261L12.8722 11.6448C12.7228 11.5691 12.5567 11.5532 12.3989 11.5994C12.2412 11.6455 12.1003 11.7513 11.9976 11.9009L10.4483 14.1497C8.01674 12.7877 6.05991 10.4629 4.91347 7.57419L6.8064 5.73353C6.9325 5.61169 7.02174 5.44436 7.06063 5.25687C7.09952 5.06939 7.08594 4.87195 7.02193 4.69445L5.52258 0.53813C5.45233 0.346794 5.32809 0.190574 5.17128 0.0964089C5.01447 0.00224336 4.83491 -0.0239658 4.66358 0.0223006L1.41498 0.912941C1.24979 0.958259 1.10241 1.06876 0.996894 1.2264C0.891374 1.38405 0.833946 1.57953 0.833984 1.78094C0.833984 11.2997 7.32805 19 15.3277 19C15.4973 19.0001 15.6619 18.9319 15.7947 18.8066C15.9274 18.6812 16.0205 18.5061 16.0586 18.3098L16.8083 14.4503C16.847 14.2458 16.8245 14.0316 16.7446 13.8447C16.6647 13.6577 16.5325 13.5097 16.3707 13.4261Z" fill="#F0F5F4"/>
</svg>
