<svg width="20" height="20" viewBox="0 0 20 20" fill="none" xmlns="http://www.w3.org/2000/svg">
<path d="M19.4469 10.5898L15.8469 8.83203C15.7188 8.76953 15.4531 8.6875 15.1531 8.83203L11.5531 10.5898C11.2188 10.7539 11 11.1367 11 11.5625C11 15.9219 13.1469 18.9375 15.1531 19.918C15.4531 20.0625 15.7156 19.9805 15.8469 19.918C17.45 19.1367 20 16.4258 20 11.5625C20 11.1367 19.7812 10.7539 19.4469 10.5898ZM15.5 18.0625V10.6758L18.4844 12.1328C18.3094 15.5352 16.5812 17.4219 15.5 18.0625ZM7 10C9.20938 10 11 7.76172 11 5C11 2.23828 9.20938 0 7 0C4.79063 0 3 2.23828 3 5C3 7.76172 4.79063 10 7 10ZM10 11.5625C10 11.4648 10.025 11.375 10.0344 11.2812C9.95625 11.2773 9.88125 11.25 9.8 11.25H9.27812C8.58437 11.6484 7.8125 11.875 7 11.875C6.1875 11.875 5.41875 11.6484 4.72188 11.25H4.2C1.88125 11.25 0 13.6016 0 16.5V18.125C0 19.1602 0.671875 20 1.5 20H12.5C12.7125 20 12.9156 19.9414 13.1 19.8438C11.4125 18.168 10 15.2852 10 11.5625Z" fill="black" fill-opacity="0.7"/>
</svg>
