<svg width="25" height="9" viewBox="0 0 25 9" fill="none" xmlns="http://www.w3.org/2000/svg">
<path d="M24.5356 0.628906C24.0234 0.164497 23.2248 0.194879 22.6866 0.628906L18.6762 3.83637C18.1858 4.23134 17.5738 4.44401 16.9401 4.44401H11.8056C11.4236 4.44401 11.1111 4.13151 11.1111 3.74957C11.1111 3.36762 11.4236 3.05512 11.8056 3.05512H15.204C15.8941 3.05512 16.5365 2.58203 16.6493 1.90061C16.7925 1.03255 16.1241 0.277344 15.2778 0.277344H8.33333C7.16146 0.277344 6.02865 0.680989 5.11719 1.41884L3.09896 3.05512H0.694444C0.3125 3.05512 0 3.36762 0 3.74957V7.91623C0 8.29818 0.3125 8.61068 0.694444 8.61068H16.1806C16.8099 8.61068 17.4219 8.398 17.9167 8.00304L24.4792 2.7513C25.1389 2.22613 25.191 1.21918 24.5356 0.628906Z" fill="black" fill-opacity="0.7"/>
</svg>
