<svg width="19" height="19" viewBox="0 0 19 19" fill="none" xmlns="http://www.w3.org/2000/svg">
<path d="M16.4979 3.65005C16.0935 3.24551 15.6134 2.92461 15.085 2.70566C14.5566 2.48671 13.9902 2.37402 13.4183 2.37402C12.8463 2.37402 12.2799 2.48671 11.7515 2.70566C11.2231 2.92461 10.743 3.24551 10.3387 3.65005L9.49953 4.48922L8.66036 3.65005C7.8436 2.8333 6.73584 2.37445 5.58077 2.37445C4.42571 2.37445 3.31795 2.8333 2.50119 3.65005C1.68443 4.46681 1.22559 5.57457 1.22559 6.72964C1.22559 7.8847 1.68443 8.99246 2.50119 9.80922L9.49953 16.8076L16.4979 9.80922C16.9024 9.40487 17.2233 8.92478 17.4423 8.39637C17.6612 7.86797 17.7739 7.3016 17.7739 6.72964C17.7739 6.15767 17.6612 5.5913 17.4423 5.0629C17.2233 4.53449 16.9024 4.0544 16.4979 3.65005Z" stroke="#F0F5F4" stroke-width="4" stroke-linecap="round" stroke-linejoin="round"/>
</svg>
