<svg width="25" height="23" viewBox="0 0 25 23" fill="none" xmlns="http://www.w3.org/2000/svg">
<path d="M24.3056 3.16645C24.6892 3.16645 25 2.85569 25 2.47201V1.08312C25 0.699436 24.6892 0.388672 24.3056 0.388672H0.694444C0.310764 0.388672 0 0.699436 0 1.08312V2.47201C0 2.85569 0.310764 3.16645 0.694444 3.16645H1.38802V19.8331H0.694444C0.310764 19.8331 0 20.1439 0 20.5276V21.9164C0 22.3001 0.310764 22.6109 0.694444 22.6109H11.1111V19.1387C11.1111 18.7567 11.4236 18.4442 11.8056 18.4442H13.1944C13.5764 18.4442 13.8889 18.7567 13.8889 19.1387V22.6109H24.3056C24.6892 22.6109 25 22.3001 25 21.9164V20.5276C25 20.1439 24.6892 19.8331 24.3056 19.8331H23.6111V3.16645H24.3056ZM11.1111 5.11089C11.1111 4.83312 11.3889 4.55534 11.6667 4.55534H13.3333C13.6111 4.55534 13.8889 4.83312 13.8889 5.11089V6.77756C13.8889 7.05534 13.6111 7.33312 13.3333 7.33312H11.6667C11.3889 7.33312 11.1111 7.05534 11.1111 6.77756V5.11089ZM11.1111 9.27756C11.1111 8.99978 11.3889 8.722 11.6667 8.722H13.3333C13.6111 8.722 13.8889 8.99978 13.8889 9.27756V10.9442C13.8889 11.222 13.6111 11.4998 13.3333 11.4998H11.6667C11.3889 11.4998 11.1111 11.222 11.1111 10.9442V9.27756ZM5.55556 5.11089C5.55556 4.83312 5.83333 4.55534 6.11111 4.55534H7.77778C8.05556 4.55534 8.33333 4.83312 8.33333 5.11089V6.77756C8.33333 7.05534 8.05556 7.33312 7.77778 7.33312H6.11111C5.83333 7.33312 5.55556 7.05534 5.55556 6.77756V5.11089ZM7.77778 11.4998H6.11111C5.83333 11.4998 5.55556 11.222 5.55556 10.9442V9.27756C5.55556 8.99978 5.83333 8.722 6.11111 8.722H7.77778C8.05556 8.722 8.33333 8.99978 8.33333 9.27756V10.9442C8.33333 11.222 8.05556 11.4998 7.77778 11.4998ZM8.33333 17.0553C8.33333 14.7541 10.1988 12.8887 12.5 12.8887C14.8012 12.8887 16.6667 14.7541 16.6667 17.0553H8.33333ZM19.4444 10.9442C19.4444 11.222 19.1667 11.4998 18.8889 11.4998H17.2222C16.9444 11.4998 16.6667 11.222 16.6667 10.9442V9.27756C16.6667 8.99978 16.9444 8.722 17.2222 8.722H18.8889C19.1667 8.722 19.4444 8.99978 19.4444 9.27756V10.9442ZM19.4444 6.77756C19.4444 7.05534 19.1667 7.33312 18.8889 7.33312H17.2222C16.9444 7.33312 16.6667 7.05534 16.6667 6.77756V5.11089C16.6667 4.83312 16.9444 4.55534 17.2222 4.55534H18.8889C19.1667 4.55534 19.4444 4.83312 19.4444 5.11089V6.77756Z" fill="black" fill-opacity="0.9"/>
</svg>
