<svg width="25" height="18" viewBox="0 0 25 18" fill="none" xmlns="http://www.w3.org/2000/svg">
<path d="M8 6.5C7.58594 5.94922 6.80078 5.83594 6.25 6.25C5.69922 6.66406 5.58594 7.44922 6 8L7.48828 9.98438C7.67578 10.2344 7.64844 10.582 7.42969 10.8008L6.92969 11.3008C6.66797 11.5625 6.24219 11.543 6.00781 11.2578L2.5 7.04688V1.25C2.5 0.558594 1.94141 0 1.25 0C0.558594 0 0 0.558594 0 1.25V9.78125C0 10.207 0.144531 10.6211 0.410156 10.9531L4.47656 16.1992C4.67188 16.4531 4.80469 16.7422 4.88281 17.0469C4.95312 17.3164 5.19922 17.5 5.48047 17.5H10.625C10.9688 17.5 11.25 17.2188 11.25 16.875V12.5C11.25 11.418 10.8984 10.3672 10.25 9.5L8 6.5ZM23.75 0C23.0586 0 22.5 0.558594 22.5 1.25V7.04688L18.9922 11.2578C18.7578 11.5391 18.3281 11.5586 18.0703 11.3008L17.5703 10.8008C17.3516 10.582 17.3242 10.2344 17.5117 9.98438L19 8C19.4141 7.44922 19.3008 6.66406 18.75 6.25C18.1992 5.83594 17.4141 5.94922 17 6.5L14.75 9.5C14.1016 10.3672 13.75 11.418 13.75 12.5V16.875C13.75 17.2188 14.0312 17.5 14.375 17.5H19.5195C19.7969 17.5 20.0469 17.3164 20.1172 17.0469C20.1953 16.7422 20.3281 16.4531 20.5234 16.1992L24.5898 10.9531C24.8555 10.6211 25 10.207 25 9.78125V1.25C25 0.558594 24.4414 0 23.75 0Z" fill="black" fill-opacity="0.9"/>
</svg>
