<svg xmlns="http://www.w3.org/2000/svg" width="197.478" height="62.386" viewBox="0 0 197.478 62.386">
  <g id="Logo" transform="translate(0 -0.011)">
    <g id="logo_couleur" data-name="logo couleur" transform="translate(0 0.01)">
      <path id="Tracé_18122" data-name="Tracé 18122" d="M18.421,0c-.021,0-.026.06-.015.2.06.7.127,5.334.061,6.281s-.067,3.086-.056,3.736a5.328,5.328,0,0,1-.037.914s-.3-1.61-.444-2.427a14.366,14.366,0,0,0-.959-2.826c-.33-.723-.661-1.967-.569-1.075s.257,2.862.456,3.818.455,2.232.635,3.023.389,1.75.389,1.75a17.138,17.138,0,0,1-1-1.99c-.528-1.225-.514-1.763-.959-2.627a16.461,16.461,0,0,0-1.608-2.509c-.345-.382-.106-.053.2.915s.857,2.947,1.3,4.3a9.193,9.193,0,0,0,1.141,2.31A24.761,24.761,0,0,1,15.3,11.677a9.287,9.287,0,0,0-1.557-1.913c-.488-.443-1.592-1.3-1.173-.681s1.293,2.387,2.038,3.426,1.276,1.871,1.749,2.431a8.774,8.774,0,0,0,.706.836,7.371,7.371,0,0,0,.657.481s.011.111.013.242a2.05,2.05,0,0,1-.008.233h0c0,.012,0,.015,0,.028a.555.555,0,0,0,.048.29.518.518,0,0,0-.184.357.417.417,0,0,1-.137.317s-.26-.018-.566-.836a16.283,16.283,0,0,0-1.423-2.549,14.145,14.145,0,0,0-1.887-2.312c-.83-.838-2.674-2.49-1.5-.96a44.527,44.527,0,0,1,2.414,3.785A15.874,15.874,0,0,0,16.1,17.046c.44.409.767.674.986.878s.282.2.282.2.014.128.018.3A2.1,2.1,0,0,1,17.33,19a1.18,1.18,0,0,0-.291.619,1.49,1.49,0,0,1-.5-.781,7.86,7.86,0,0,0-1.652-2.073,24.637,24.637,0,0,0-3.057-2.833c-.888-.63-1.9-1.5-1.029-.481s1.749,2.3,2.643,3.348a22.941,22.941,0,0,0,2.213,2.274,9.219,9.219,0,0,0,1.033.759.526.526,0,0,1,.239.636c-.043.27-.158.562-.18.755a1.774,1.774,0,0,1-.08.191c-.061.03-.162-.033-.341-.311a22.022,22.022,0,0,0-2.589-2.673c-1.043-.953-2.091-1.962-3.2-2.794-1.866-1.4-2.157-1.526-.271.714a33.426,33.426,0,0,0,3.062,3.39,11.428,11.428,0,0,0,2.114,1.637c.612.356.609.36.609.36s.408-.04.421.279a5.741,5.741,0,0,1-.222,1.153s-.051.139-.185.472a1.905,1.905,0,0,0-.065.194.375.375,0,0,1-.023-.031,6.366,6.366,0,0,0-.8-1.115,12.4,12.4,0,0,0-2.069-1.837,11.3,11.3,0,0,1-1.88-1.675,20.426,20.426,0,0,0-3.1-2.118c-.876-.482-2.108-1.186-1.5-.483a41.36,41.36,0,0,0,3.2,3.39c.851.7,2,1.519,2.628,1.957s1.859,1.472,2.441,1.759,1.066.428,1.033.758-.2.681-.224.914v0c-.044.228-.218.531-.417.154a2.127,2.127,0,0,0-.9-1.116c-.788-.631-3.349-2.419-4.784-3.278s-3.3-2.286-3.847-2.677-.55-.381-.844-.6-.132.345,1.367,1.635,2.883,2.7,4,3.71a14.1,14.1,0,0,0,3.19,2.279,4.861,4.861,0,0,0,1.308.361c.374.079.67.264.692.506a3.694,3.694,0,0,0-.17.57,3.009,3.009,0,0,1-.087.6s-.019.054-.04.132c-.071.213-.174.356-.425-.014a7.9,7.9,0,0,0-1.973-1.677,22.717,22.717,0,0,0-2.152-.883c-.519-.245-2.114-1.068-3.139-1.72s-3.04-1.49-4.075-2.042S.236,19.455.7,20.088a15.012,15.012,0,0,0,2.915,2.6A49.826,49.826,0,0,0,8.772,25.6c1.577.683,3.011,1.61,3.934,1.923a8.807,8.807,0,0,0,1.775.443c.411.061.553.148.427.757s-.227.773-.27,1.033l-.118.424c-.009.03-.014.057-.023.086-.058.012-.141-.015-.276-.115-.466-.349-.312-.445-1.08-.958a37.747,37.747,0,0,0-4.4-2.084c-1.824-.786-4.939-1.808-6.033-2.128S.818,24.433.465,24.3c-.209-.078-.467-.151-.465-.1,0,.039.126.137.467.334.844.487,2.221,1.327,3.375,1.92s3.214,1.543,4.4,2a34.523,34.523,0,0,0,4.025,1.763,9.623,9.623,0,0,1,1.727.284c.4.182.406.106.335.506l0,.012a6.649,6.649,0,0,1-.186.738c-.012.043-.031.1-.039.136l0,.019c-.015.074-.025.134-.037.2-.031.151-.094.27-.33.1A8.177,8.177,0,0,0,12,31.3c-.774-.306-3.293-.97-4.44-1.328s-2.968-.908-4.064-1.127S-.11,27.83.926,28.477a39.375,39.375,0,0,0,4.5,2.243,32.617,32.617,0,0,0,4.534,1.447,10.5,10.5,0,0,0,2.755.487c.78-.025,1.272-.22,1.26.163a3.949,3.949,0,0,1-.129,1.153,1.162,1.162,0,0,0-.118.331c-.119.309-.247.582-.247.582s-.088-.587-1.034-.838-2.746-.784-3.6-.968-4.187-1-5.37-1.174-1.627-.273-.37.4A23.824,23.824,0,0,0,6.99,34.1a12.267,12.267,0,0,0,3.6.888c1.016.088,1.645.25,2.1.245s.834-.1.841.2a3.147,3.147,0,0,1-.053.487c-.052.31-.122.625-.122.625h0a2.345,2.345,0,0,0-.8-.361c-.506-.131-2.881-.641-4.251-.85a21.876,21.876,0,0,0-3.4-.213c-.882,0-1.423.054-.324.238a29.231,29.231,0,0,1,3.692,1.088,18.262,18.262,0,0,0,3.643.808,5.07,5.07,0,0,0,1.164-.116c.166-.018.228-.009.244.112,0,.156-.007.288-.007.288a5.084,5.084,0,0,1-.156.795c-.012.05-.022.077-.022.077s-.022.069-.052.2c-.047.057-.132.089-.318,0a2.546,2.546,0,0,0-1.353-.125c-.555.026-1.144.287-1.86.312a13.853,13.853,0,0,1-2.8-.328,9.2,9.2,0,0,0-3.214.226c-1.08.216-2.159.4-.974.433s2.643.605,3.829.731A18.232,18.232,0,0,0,9.843,39.8a12.462,12.462,0,0,0,2.329-.229c.429-.179.818-.541.791-.039s-.109.823-.129,1.114c0,.015,0,.033,0,.05a1.753,1.753,0,0,1-.033.269c-.006.02-.012.061-.018.086-.048.09-.144.126-.36.031a5.7,5.7,0,0,0-1.961-.365,12.071,12.071,0,0,0-3.122.147c-.932.169-2.742.474-3.721.662s-1.686.336-2.187.43-.766.19.887.122a39.224,39.224,0,0,1,4.2.372,21.75,21.75,0,0,0,3.634-.145,7.456,7.456,0,0,0,1.814-.352c.332-.192.737-.63.743-.274a10.638,10.638,0,0,1-.034,1.232,1.754,1.754,0,0,0-.061.346c-.044.145-.119.2-.309.01a1.347,1.347,0,0,0-1.308-.363c-.633.095-2.844.219-3.913.225a18.909,18.909,0,0,0-3.4.264,22.225,22.225,0,0,0-3.159.942c-.555.2,1.646-.128,3.352-.364a16.757,16.757,0,0,1,4.147.114,11.266,11.266,0,0,0,2.611.168,9.419,9.419,0,0,0,1.767-.469s.162.066.054.716a5.724,5.724,0,0,0-.086,1c0,.051,0,.076,0,.076s-.062-.457-.749-.439a39.19,39.19,0,0,0-4.7.539c-1.119.259-1.267.291-2.837.665s-2.427.7-2.881.824.478.2,1.957-.031,4.191-.168,5.309-.259a6.368,6.368,0,0,0,2.235-.311c.541-.276,1.006-.69,1.393-.551a.5.5,0,0,1,.241.139c0,.018,0,.034,0,.051a2.429,2.429,0,0,0,0,.4v0a1.6,1.6,0,0,0,.047.486c0,.019,0,.039.006.056.012.088,0,.117-.14.014-.3-.225-.548-.194-1.26-.123s-2.664.8-3.812.979a21.232,21.232,0,0,0-2.7.667c-.81.22-2.861.738,0,.438a45.976,45.976,0,0,0,5.68-.615,13.453,13.453,0,0,0,1.672-.591c.363-.142.552-.241.607.162V48.1a8.4,8.4,0,0,1,.008.931s-.154-.015-.652-.082a10.471,10.471,0,0,0-3.162.862,27.725,27.725,0,0,1-2.693.865c-1.157.35-3.418,1.114-1.391.749s3.718-.4,4.839-.7a9.986,9.986,0,0,0,2.275-.906c.45-.238.72-.6.838-.119v0c.117.486.169.785.244,1.033s.063.407-.418.2-1-.069-1.909.153-2.409.7-3.485,1.019a15.619,15.619,0,0,0-2.182.867c-.543.234-.62.452,1.769-.114s3.807-.544,4.606-.818,1.112-.538,1.487-.511c.281.021.361.089.418.331.008.036.011.06.017.091.011.062.023.121.036.2l0,.015c.06.372.086.656.1.774,0,.04,0,.061,0,.061s-.52-.2-.982-.322a7.2,7.2,0,0,0-2.513.269,22.412,22.412,0,0,0-2.929.784c-.909.336-1.089.525.936.2a12.364,12.364,0,0,1,2.627-.182,8.108,8.108,0,0,0,.865-.006,3.829,3.829,0,0,0,.978-.116,3.02,3.02,0,0,0,.651-.156c.2-.079.358-.222.428-.156.024.109.037.159.037.159a7.763,7.763,0,0,0,.056.915c.015.206-.042.367-.511.156a3.106,3.106,0,0,0-2.053-.247c-1.165.159-2.553.374-3.07.506s.252.219,1.726.165a22.027,22.027,0,0,1,2.843.131,2.5,2.5,0,0,0,.668-.076c.251-.056.426-.114.483-.042l0,.014a.156.156,0,0,1,.013.107,2.085,2.085,0,0,0,0,.333c0,.013,0,.022,0,.036,0,.033,0,.074.007.107,0,.052.008.1.011.159s.012.145.018.222.011.125.019.193v.014c.041.435.095.931.138,1.374,0,.029.007.057.009.085.012.122.022.235.031.343l.01.1c.01.128.019.244.023.339a13.652,13.652,0,0,0,.639,3.46c.172.328.177.5.315.512h.021a.478.478,0,0,0,.134-.034c.159-.06.193-.216-.007-.755a9.286,9.286,0,0,1-.58-2.07c-.018-.116-.032-.25-.045-.4-.088-1.017-.075-2.626-.176-3.262-.034-.214-.066-.4-.093-.568-.014-.086-.025-.166-.035-.244-.007-.046-.011-.091-.017-.134-.008-.079-.01-.152-.01-.222,0-.028,0-.058,0-.084a.964.964,0,0,1,.047-.26c.118-.331.462-.413,1.16-.472s2.58-.129,3.865-.264a5.464,5.464,0,0,0,1.954-.469c.444-.15-2.077-.276-3.358-.251a8.268,8.268,0,0,0-2.7.309c-.532.229-.863.763-.974.512a1.326,1.326,0,0,1-.084-.359c0-.035-.01-.069-.012-.1a2.856,2.856,0,0,1,0-.332c0-.052,0-.089,0-.118,0-.085-.008-.08-.008-.08,0-.017,0-.039-.007-.056-.006-.091.029-.257.377-.222a24.338,24.338,0,0,0,2.745-.507c1.069-.164,3.192-.5,4-.581s2.188-.3.835-.395a29.778,29.778,0,0,0-4.055-.134,7.516,7.516,0,0,0-2.885.546c-.728.395-1.132,1.049-1.254.354a4.333,4.333,0,0,0-.1-.442c-.03-.109-.056-.2-.082-.29-.013-.045-.021-.085-.031-.126a1.032,1.032,0,0,1-.031-.175.626.626,0,0,1-.006-.089.365.365,0,0,1,.053-.191.756.756,0,0,1,.882-.314,6.08,6.08,0,0,0,2.049-.192c.886-.123,4.169-.552,4.887-.737s2.1-.346.6-.475a25.609,25.609,0,0,0-3.637-.212,16.3,16.3,0,0,0-2.466.309,5.271,5.271,0,0,0-1.766.669c-.325.225-.521.485-.635-.047a.28.28,0,0,0-.018-.075,2.8,2.8,0,0,1-.055-.834c-.017-.359.032-.463.37-.315s.537.08,1.351.044,2.136-.152,3.26-.266,2.4-.229,2.979-.268,2.257-.261.742-.435-2.412-.269-3.917-.333a9.639,9.639,0,0,0-2.936.149c-1.036.209-1.654.678-1.812.51a.444.444,0,0,1-.106-.225,1.053,1.053,0,0,1-.023-.17c-.006-.1-.009-.217-.018-.361-.025-.377-.095-.759.321-.515a2.258,2.258,0,0,0,1.678.045,18.142,18.142,0,0,1,3.49-.424,15.026,15.026,0,0,1,2.237-.071c1.534.1,2.488.127.368-.436a8.985,8.985,0,0,0-3.733-.451,10.511,10.511,0,0,0-3.025.387c-.706.246-1.232.864-1.3.472a2.8,2.8,0,0,1-.056-1.034l0-.023c0-.031.014-.111.028-.227.013-.158.053-.238.385-.186a3.965,3.965,0,0,0,1.444.007c.79-.1.947-.144,1.862-.233s2.984-.515,4.14-.7,2.758-.386,1.114-.473c-.9-.047-1.6-.021-2.245,0-.539.022-1.037.043-1.576.022A17.1,17.1,0,0,0,15,43.076a3.411,3.411,0,0,0-1.44.59c-.258.2-.483.655-.465.039,0-.162,0-.3,0-.434,0-.051.007-.087.01-.132a.981.981,0,0,1,.04-.237.283.283,0,0,1,.309-.228c.424.007,2.574-.089,3.913-.225s3.359-.665,4.278-.778,2.415-.262.929-.355a22.315,22.315,0,0,0-3.591-.172c-1.523.1-3.139.375-3.956.462a2.191,2.191,0,0,0-1.162.314c-.4.2-.639.619-.649.319v0a7.291,7.291,0,0,1,.084-.874c.009-.076.02-.152.03-.228.029-.214.093-.392.477-.326a11.647,11.647,0,0,0,2.795-.188c.9-.16.932-.253,1.581-.312s1.421-.126,2.466-.31a20.791,20.791,0,0,0,2.7-.745c.566-.177-.072-.086-.933-.162a22.755,22.755,0,0,0-3.311-.132,18.509,18.509,0,0,0-3.675.623,3.46,3.46,0,0,0-1.3.631c-.332.222-.713.424-.65.077v-.013c.06-.343.116-.735.173-1.1.014-.089.024-.179.036-.268.028-.215.068-.343.378-.288a8.138,8.138,0,0,0,2.468-.15c1.1-.206,2.962-.607,4.234-.778a19.475,19.475,0,0,1,2.374-.23c.587-.013.239-.239-.842-.361a27.093,27.093,0,0,0-4.662-.137,13.979,13.979,0,0,0-3.068.744c-.5.276-.8.768-.79.276a10.789,10.789,0,0,1,.181-1.335,1.178,1.178,0,0,1,.131-.293c.25-.372.385-.079,1.163-.076s2.718-.32,4.05-.5,4.052-.436,4.7-.461-.33-.282-1.774-.364a34.415,34.415,0,0,0-4.847-.057,13.918,13.918,0,0,0-2.418.586c-.565.213-.95.6-.931.117a4.569,4.569,0,0,1,.222-1.272c.164-.3.271-.451,1.067-.474a40.256,40.256,0,0,0,4.094-.7,20.829,20.829,0,0,1,2.838-.547c.842-.032,2.611-.022,1.489-.192a14.184,14.184,0,0,0-3.263-.091,19.316,19.316,0,0,0-4.142.58c-.757.3-1.415.536-1.717.71-.185.106-.257.148-.271.062a3.211,3.211,0,0,1,.035-.342l0-.02a3.163,3.163,0,0,1,.312-1.051c.148-.251.162-.492.882-.395a14.093,14.093,0,0,0,3.352-.305c1.026-.2,2.346-.715,3.673-.941s3.483-.449,2.138-.507a29.163,29.163,0,0,0-3.589-.054,26.161,26.161,0,0,0-4.28.62,5.79,5.79,0,0,0-1.532.63c-.283.2-.679.8-.65.276a4.373,4.373,0,0,1,.268-1.272c.13-.29.15-.45.742-.395a10.569,10.569,0,0,0,2.886-.347c1.029-.261,3.033-.939,3.9-1.137a23.06,23.06,0,0,1,2.328-.389c.736-.1.06-.175-1.4-.085a30.074,30.074,0,0,0-5.635.576,11.56,11.56,0,0,0-2.227.9c-.344.194-.441.192-.328-.279s.247-.911.314-1.231.042-.392.649-.315a21.742,21.742,0,0,0,4.512-.857,5.668,5.668,0,0,0,1.673-.51c.565-.176.711-.05,1.209-.2s.983-.423,1.579-.591.24-.2-1.166-.083a23.4,23.4,0,0,0-4.748.538,13.275,13.275,0,0,0-3.02,1.1c-.3.255-.636.612-.557.078a3.157,3.157,0,0,1,.147-.636c.039-.111.079-.207.122-.317v0c.1-.255.188-.408.742-.353a10.9,10.9,0,0,0,3.254-.782c1.162-.434,2.394-.95,3.2-1.3s2.124-.666.833-.593a20.485,20.485,0,0,0-4.14.7,12.666,12.666,0,0,0-2.74,1.023c-.476.272-1.024.951-.973.553a4.694,4.694,0,0,1,.225-.833l0-.015c.087-.294.06-.429.691-.5a8.711,8.711,0,0,0,2.276-.747c.67-.312,2.656-1.054,3.8-1.735a8.37,8.37,0,0,1,1.67-.829s.072-.182-1.211.155a24.474,24.474,0,0,0-4.275,1.255,10.4,10.4,0,0,0-1.9,1.027c-.515.453-.913.8-.834.395a13.967,13.967,0,0,1,.358-1.43c.093-.251.11-.188.743-.274a19.891,19.891,0,0,0,3.064-1.3,23.428,23.428,0,0,0,2.271-1.185c.771-.389,3-1.331,1.482-.948a36.9,36.9,0,0,0-4.182,1.3,16.494,16.494,0,0,0-2.086,1.066c-.552.326-1.227,1.16-1.112.631a10.433,10.433,0,0,1,.361-1.31c.1-.257.05-.051.555-.237s2.2-.975,3.154-1.5,2.522-1.3,3.014-1.619,1.189-.64.09-.317a21.393,21.393,0,0,0-4.088,1.417c-.981.59-1.335.809-1.854,1.145s-.808.793-.65.156.222-.833.269-1.072c.024-.127.035-.1.117-.076a.669.669,0,0,0,.442-.041c.511-.182,2.082-1.3,2.965-1.818a20.906,20.906,0,0,0,2.776-2.016c.6-.542-.285-.119-1.023.235a19.409,19.409,0,0,0-2.92,1.618,20.845,20.845,0,0,0-1.8,1.425c-.282.261-.442.455-.372.078a.984.984,0,0,0,.019-.212,1.065,1.065,0,0,1,0-.107.177.177,0,0,1,.009-.042.227.227,0,0,1,.037-.075.455.455,0,0,1,.033-.043,1.777,1.777,0,0,1,.173-.156c.379-.306,2.894-2.317,3.6-3.087s1.848-1.892,2.306-2.536,1.529-2.249.731-1.547S23.207,11.238,22.48,11.9s-2.17,2.333-2.72,2.932A13.819,13.819,0,0,1,18.651,15.9l.012-.047.009-.022c.01-.03.029-.079.052-.132a3.835,3.835,0,0,1,.2-.393c.253-.438,1.918-3.077,2.572-3.927a11.565,11.565,0,0,0,1.513-2.5c.252-.651,1.341-3.092.813-2.621a29.779,29.779,0,0,0-2.25,3.292c-.558.829-1.169,1.984-1.561,2.578a3.5,3.5,0,0,1-.46.634s.616-2.163.949-3.1a30.754,30.754,0,0,0,1.076-4.408c.062-.765.309-2.894.069-2.425s-.768,2.385-1.084,3.455-.717,2.634-.852,3.375a9.949,9.949,0,0,1-.453,1.548s.138-3.649.139-4.888a33.185,33.185,0,0,0-.465-4.693A6.559,6.559,0,0,0,18.421,0Z" fill="#fff"/>
      <g id="Groupe_13500" data-name="Groupe 13500" transform="translate(0 0.001)">
        <path id="Tracé_18123" data-name="Tracé 18123" d="M29.547,48.7V38.66h1.388l1.855,5.319h.029l1.84-5.319h1.4V48.7H34.616V42.6h-.028l-1.43,4.317h-.722L31.019,42.6h-.028V48.7Z" transform="translate(3.016 3.945)" fill="#fff"/>
        <path id="Tracé_18124" data-name="Tracé 18124" d="M36.1,48.7l2.25-10.045h1.2L41.8,48.7H40.36l-.424-2.159H37.968L37.543,48.7Zm3.567-3.513-.708-3.639H38.93l-.708,3.639Z" transform="translate(3.685 3.945)" fill="#fff"/>
        <path id="Tracé_18125" data-name="Tracé 18125" d="M41.918,48.7V38.66h2.139a2.492,2.492,0,0,1,1.89.677,2.68,2.68,0,0,1,.644,1.919v4.7a2.794,2.794,0,0,1-.687,2.082,2.716,2.716,0,0,1-1.975.67Zm1.445-8.691V47.35h.666a1.074,1.074,0,0,0,.863-.3,1.469,1.469,0,0,0,.255-.953V41.255a1.513,1.513,0,0,0-.24-.917,1.029,1.029,0,0,0-.877-.325Z" transform="translate(4.278 3.945)" fill="#fff"/>
        <path id="Tracé_18126" data-name="Tracé 18126" d="M46.646,48.7,48.9,38.659h1.2L52.351,48.7H50.907l-.424-2.159H48.514L48.09,48.7Zm3.567-3.513-.708-3.639h-.029l-.709,3.639Z" transform="translate(4.761 3.945)" fill="#fff"/>
        <path id="Tracé_18127" data-name="Tracé 18127" d="M52.388,41.037a2.555,2.555,0,0,1,.213-1.072,2.241,2.241,0,0,1,.566-.775,2.368,2.368,0,0,1,.771-.452,2.575,2.575,0,0,1,2.527.452,2.357,2.357,0,0,1,.552.775,2.572,2.572,0,0,1,.213,1.072v.509H55.786v-.509a.954.954,0,0,0-.29-.768,1.076,1.076,0,0,0-1.374,0,.954.954,0,0,0-.29.768v5.3a.957.957,0,0,0,.29.769,1.08,1.08,0,0,0,1.374,0,.957.957,0,0,0,.29-.769v-1.89H54.64v-1.27H57.23v3.16a2.544,2.544,0,0,1-.213,1.087,2.239,2.239,0,0,1-.552.747,2.388,2.388,0,0,1-.786.465,2.517,2.517,0,0,1-1.741,0,2.221,2.221,0,0,1-.771-.465,2.134,2.134,0,0,1-.566-.747,2.528,2.528,0,0,1-.213-1.087Z" transform="translate(5.347 3.938)" fill="#fff"/>
        <path id="Tracé_18128" data-name="Tracé 18128" d="M57.347,48.7,59.6,38.659h1.2L63.052,48.7H61.608l-.424-2.159H59.215L58.791,48.7Zm3.567-3.513-.708-3.639h-.029l-.709,3.639Z" transform="translate(5.854 3.945)" fill="#fff"/>
        <path id="Tracé_18129" data-name="Tracé 18129" d="M67.865,41.56H66.42v-.324a1.537,1.537,0,0,0-.234-.854.863.863,0,0,0-.785-.36.918.918,0,0,0-.483.114.944.944,0,0,0-.3.282,1.166,1.166,0,0,0-.155.417,2.676,2.676,0,0,0-.043.486c0,.2.007.363.02.495a.938.938,0,0,0,.107.352.79.79,0,0,0,.247.268,2.19,2.19,0,0,0,.446.226l1.106.438a2.745,2.745,0,0,1,.777.431,1.832,1.832,0,0,1,.467.571,2.659,2.659,0,0,1,.213.769,7.618,7.618,0,0,1,.057.98,5.092,5.092,0,0,1-.129,1.178,2.45,2.45,0,0,1-.41.925,2.045,2.045,0,0,1-.779.62,2.756,2.756,0,0,1-1.174.225,2.58,2.58,0,0,1-.978-.183,2.343,2.343,0,0,1-.778-.507,2.46,2.46,0,0,1-.517-.755,2.264,2.264,0,0,1-.191-.939v-.536h1.443v.451a1.176,1.176,0,0,0,.234.713.916.916,0,0,0,.787.317,1.263,1.263,0,0,0,.572-.106.755.755,0,0,0,.319-.3,1.111,1.111,0,0,0,.136-.473c.015-.183.021-.388.021-.614a5.816,5.816,0,0,0-.029-.649,1.089,1.089,0,0,0-.114-.408.78.78,0,0,0-.261-.255,3.428,3.428,0,0,0-.431-.212l-1.035-.423A2.293,2.293,0,0,1,63.3,42.908a3.444,3.444,0,0,1-.32-1.574,3.646,3.646,0,0,1,.156-1.072,2.408,2.408,0,0,1,.468-.874,2.107,2.107,0,0,1,.757-.585,2.52,2.52,0,0,1,1.1-.219,2.417,2.417,0,0,1,.985.2,2.543,2.543,0,0,1,.77.522,2.177,2.177,0,0,1,.652,1.552Z" transform="translate(6.421 3.938)" fill="#fff"/>
        <path id="Tracé_18130" data-name="Tracé 18130" d="M72.977,45.848v.622a2.233,2.233,0,0,1-.176.882,2.467,2.467,0,0,1-.488.739,2.358,2.358,0,0,1-.73.516,2.148,2.148,0,0,1-.9.191,3.3,3.3,0,0,1-.835-.112,1.99,1.99,0,0,1-.765-.4,2.175,2.175,0,0,1-.559-.727,2.553,2.553,0,0,1-.219-1.135V40.9a2.44,2.44,0,0,1,.17-.917,2.142,2.142,0,0,1,.482-.733,2.253,2.253,0,0,1,.743-.487,2.521,2.521,0,0,1,.955-.176,2.2,2.2,0,0,1,1.658.663,2.382,2.382,0,0,1,.488.768,2.594,2.594,0,0,1,.176.967v.565H71.533v-.481a1.164,1.164,0,0,0-.24-.733.783.783,0,0,0-.652-.312.733.733,0,0,0-.714.333,1.756,1.756,0,0,0-.177.84v5.135a1.321,1.321,0,0,0,.192.733.75.75,0,0,0,.687.3,1.05,1.05,0,0,0,.3-.048.917.917,0,0,0,.3-.163.865.865,0,0,0,.213-.311,1.26,1.26,0,0,0,.085-.494v-.494Z" transform="translate(6.972 3.938)" fill="#fff"/>
        <path id="Tracé_18131" data-name="Tracé 18131" d="M73.019,48.7l2.25-10.045h1.2L78.724,48.7H77.281l-.425-2.159H74.888L74.463,48.7Zm3.567-3.513-.708-3.639H75.85l-.708,3.639Z" transform="translate(7.453 3.945)" fill="#fff"/>
        <path id="Tracé_18132" data-name="Tracé 18132" d="M78.838,48.7V38.66H81.16q2.549,0,2.549,2.948a3.7,3.7,0,0,1-.277,1.509,2.136,2.136,0,0,1-.97,1L84.02,48.7H82.49l-1.345-4.288h-.863V48.7Zm1.445-8.691v3.133H81.1a1.46,1.46,0,0,0,.609-.107.828.828,0,0,0,.354-.3,1.392,1.392,0,0,0,.155-.487,5.244,5.244,0,0,0,0-1.34,1.342,1.342,0,0,0-.17-.5,1.152,1.152,0,0,0-1.019-.4Z" transform="translate(8.047 3.945)" fill="#fff"/>
        <path id="Tracé_18133" data-name="Tracé 18133" d="M87.716,48.7V40.013H86.045V38.66H90.83v1.353H89.16V48.7Z" transform="translate(8.783 3.945)" fill="#fff"/>
        <path id="Tracé_18134" data-name="Tracé 18134" d="M90.964,48.7V38.66h2.322q2.549,0,2.549,2.948a3.682,3.682,0,0,1-.277,1.509,2.136,2.136,0,0,1-.97,1L96.146,48.7h-1.53l-1.345-4.288h-.863V48.7Zm1.445-8.691v3.133h.821a1.467,1.467,0,0,0,.609-.107.818.818,0,0,0,.353-.3,1.348,1.348,0,0,0,.155-.487,5.244,5.244,0,0,0,0-1.34,1.322,1.322,0,0,0-.169-.5,1.152,1.152,0,0,0-1.019-.4Z" transform="translate(9.285 3.945)" fill="#fff"/>
        <path id="Tracé_18135" data-name="Tracé 18135" d="M95.847,48.7,98.1,38.659h1.2l2.25,10.045h-1.444l-.425-2.159H97.716L97.291,48.7Zm3.567-3.513-.708-3.639h-.029l-.708,3.639Z" transform="translate(9.783 3.945)" fill="#fff"/>
        <path id="Tracé_18136" data-name="Tracé 18136" d="M106.136,38.66,104.068,48.7h-1.274L100.741,38.66h1.53l1.147,7.011h.028l1.16-7.011Z" transform="translate(10.282 3.945)" fill="#fff"/>
        <path id="Tracé_18137" data-name="Tracé 18137" d="M106.419,48.7V38.66h4.3v1.353h-2.86v2.949h2.492v1.354h-2.492v2.948h2.86V48.7Z" transform="translate(10.862 3.945)" fill="#fff"/>
        <path id="Tracé_18138" data-name="Tracé 18138" d="M111.172,48.7V38.66h1.445v8.6h2.86V48.7Z" transform="translate(11.347 3.945)" fill="#fff"/>
        <path id="Tracé_18139" data-name="Tracé 18139" d="M43.331,13.414c-2.468,1.034-3.757,15-3.392,16.678-.112.809-.617.447-.953-.085-.449-.335-4.626-14.163-4.542-15.224-1.122-2.514-2.3-1.984-3.757-1.928a.84.84,0,0,0-.785.586c-.477.615-.477,24.36.028,24.556.056.306,1.233-1.286,1.57-1.146-.59-1.62-.056-11.9-.225-12.823-.2-1.2.28-5.055,1.178-.754.868,4.05,2.606,11.006,4.373,14.918,2.5-.168,3.868-.307,4.122-1.285-.085-2.123,2.018-14.918,2.41-15.9.2-.725.337-1.451.7.644.14,7.319.281,13.436,1.935,14.973,1.093,1.006.9-1.089,2.018-1.928,1.627-6.676.252-18.66.953-16.984,1.318-2.515-4.429-3.66-5.635-4.3" transform="translate(3.016 1.303)" fill="#fff"/>
        <path id="Tracé_18140" data-name="Tracé 18140" d="M78.19,26.834c-.28.979-1.486,5.726-1.963,6.956-.9,2.319-1.346,2.179-1.569-.251-.309-3.24-.617-15.449,1.177-17.376a5.423,5.423,0,0,0,1.4-2.654c.252-1.061.169-1.928-.757-1.955-2.5-.084-4.4,6.76-5.186,9.581-.112.391-1.429-.81-2.606-.643-1.642.216-5.31,3.748-5.55,8.272-.552,2.174-1.341,5.055-2.272,5.528-.337.168-.589.224-.673-.223-.42-1.453-.309-5.644-.2-7.459.112-1.146.225-1.676.393-2.99.028-.615-2.747-3.38-3.786-3.185-.28.029,1.486-1.005,1.542-1.4,0-.475-1.57-1.76-2.047-1.62-5.018,1.4-7.6,8.771-7.093,13.074.169,1.061.309,1.117.841,1.536a7.243,7.243,0,0,0,3.084,1.09c.9-.14,2.552-4.274,3.112-5.5.449-.978-.14,1.844.252,4.414a3.657,3.657,0,0,0,1.291,2.654c2.966,1.979,4.355,1.633,5.7-3.751.007.031.008.061.014.091a6,6,0,0,0,4.037,2.264c.73,0,2.27-3.548,2.3-3.716.084-.335.421-1.676.449-.782a22.372,22.372,0,0,0,.168,6.146c.617,2.346,2.916,2.85,4.347,3.3.813.252,1.654-1.089,2.243-2.989.617-1.955,1.654-6.733,1.878-7.961.281-1.536-.307-1.257-.532-.447M75.527,15.38c.224-.838.5-1.7.756-2.541,0-.029.029-.056.029-.085.056-.139.112-.306.28-.25a.281.281,0,0,1,.2.363,3.878,3.878,0,0,1-.14.978,4.767,4.767,0,0,1-.926,1.536.567.567,0,0,1-.2.169c0-.085-.056-.112,0-.169m-20.27,7.208c-1.177,1.984-2.747,5.029-3.9,7.152-.9,1.648-.7-.531-.169-2.207a12.78,12.78,0,0,1,2.8-4.973c1.122-1.146,2.047-1.285,1.262.028m15.531.14a28.767,28.767,0,0,1-2.944,7.738c-.42.894-.616.782-.672.029.9-4.358,2.13-8.409,3.307-8.6.421-.084.449.363.309.838" transform="translate(4.996 1.18)" fill="#fff"/>
        <path id="Tracé_18141" data-name="Tracé 18141" d="M91.134,20.895a3.338,3.338,0,0,0,1.486.056c1.43.67,6.784-7.1,4.823-7.375-.9-.894-4.823-2.374-5.747-1.676-7.43,5.392-9.925,21.735-2.439,25.534a4.385,4.385,0,0,0,4.653-1.005.855.855,0,0,1,.225-.225c1.627-.335,3.728-5.448,3.7-7.821.225-1.034-3.448-2.654-3.084-.7.868,1.369.252,7.1-1.458,7.375-.169.252-.281.252-.5.084-2.411-2.29-2.86-11.063-2.13-13.968.111-.335.168-.364.476-.28m-.252-.838A35.515,35.515,0,0,1,92.676,14.3c5.691-1.173-.252,5.923-1.654,6.006-.028-.028-.056-.028-.14-.028Z" transform="translate(8.648 1.195)" fill="#fff"/>
        <path id="Tracé_18142" data-name="Tracé 18142" d="M132.5,17.83c.645-.2,2.832-1.314,2.775-1.9l-.307-2.1c-1.206.28-7.879,5.336-2.468,3.995" transform="translate(13.312 1.412)" fill="#fff"/>
        <path id="Tracé_18143" data-name="Tracé 18143" d="M149.854,17.83c.644-.2,2.83-1.314,2.774-1.9l-.309-2.1c-1.2.28-7.876,5.336-2.465,3.995" transform="translate(15.082 1.412)" fill="#fff"/>
        <path id="Tracé_18144" data-name="Tracé 18144" d="M186.843,26.665a32.194,32.194,0,0,1-2.186,5.475c-.7,1.062-.926.252-1.066-.586-.252-1.34-.029-4.749-1.122-6.9-.307-.5-1.346-1.146-1.907-.643a17.816,17.816,0,0,0-2.355,4.05c-.14.307-.449.447-.531-.084-.225-.894-.561-9.051-1.122-9.051-.2-.391-.225-.363-.618-.447-1.624.307-2.185,2.822-2.382,4.3-.132,1.008-.285,2.466-.41,4.023a1.733,1.733,0,0,1-1.245,1.229,1.492,1.492,0,0,1-1.653-1.731,6.443,6.443,0,0,0-4.569-6.425,2.183,2.183,0,0,0-.646-.307c-.112-.028-.392-.168-.224-.279.449-.671.2-.671-.252-.839-2.043.673-3.554,4.46-3.867,8.053a1.352,1.352,0,0,0-.086.272,8.535,8.535,0,0,1-4.29,5.309c-1.99.92-2.326-1.789-2.326-3.13.056-.2-.056-.726.169-.782,1.626-.306,4.037-2.821,3.532-6.788a1.936,1.936,0,0,0-2.13-1.76c-2.355,0-4.6,3.38-5.075,5.391a9.7,9.7,0,0,0-.233,2.406c-.526,2.047-2.14,8.122-3.1,9.132-.364.39-.589.251-.7-.307-.506-2.6-.954-15.365.084-16.594.953-1.117,3.252-6.984.589-6.984a1.4,1.4,0,0,0-1.206.615c-2.448,3.272-4.575,9.409-4.931,14.826a8.271,8.271,0,0,1-3.789,3.975c-1.989.92-2.326-1.789-2.326-3.13.056-.2-.056-.726.169-.782,1.626-.306,4.037-2.821,3.532-6.788a1.935,1.935,0,0,0-2.131-1.76c-2.354,0-4.6,3.38-5.074,5.391a9.8,9.8,0,0,0-.23,2.5c-.468,1.8-1.421,5.175-2.545,5.492-.2.056-.336-.055-.336-.446-.085-3.492,1.037-8.158.644-10.224-.112-.587-3.055-3.995-3.841-2.431-.868,1.844-2.018,4.833-2.691,6.789-.309.894-.561,1.34-.561.084-.028-1.9,1.01-4.5.449-5.811a1.17,1.17,0,0,0-1.793.056,49.5,49.5,0,0,0-2.945,6.929c-.084.223-.5,1.229-.5-.28-.055-1.034.057-8.52-.055-9.3a1.941,1.941,0,0,0-.506-1.285,2.043,2.043,0,0,0-.812-.336c-.337-.139-.589.085-.73.727-.313,1.483-1.89,8.366-2.082,10.657-.554,2.205-1.4,5.536-2.4,6.048-.336.168-.589.224-.672-.224-.421-1.453-.309-5.643-.2-7.459.112-1.145.225-1.676.393-2.989.028-.614-2.747-3.38-3.786-3.184-.28.028,1.487-1.006,1.543-1.4,0-.475-1.57-1.76-2.047-1.62-5.019,1.4-7.6,8.771-7.093,13.073.168,1.062.309,1.119.841,1.537a7.225,7.225,0,0,0,3.084,1.089c.9-.139,2.551-4.273,3.112-5.5.447-.979-.14,1.843.252,4.414a3.653,3.653,0,0,0,1.289,2.654c3.066,2.047,4.447,1.6,5.842-4.323.407,1.839,1.425,4.229,2.68,3.765a1.937,1.937,0,0,0,.561-.2.867.867,0,0,0,.365-.223,2.377,2.377,0,0,0,.365-.475c1.233-2.739,1.626-6.258,2.691-9.106.251-.615,1.037-2.542.813-.95-.112.809-.73,2.96-.842,3.771a5.559,5.559,0,0,0,.225,2.654c.141.418.336.726.672.81,1.487.307,1.178.446,1.4-.335.785-1.565,2.5-6.341,2.5-5.7,0,1.23-.028,8.185.309,9.247.617,2.541,2.047,3.6,3.841,1.7a13.393,13.393,0,0,0,2.735-5.964c.438,2.691,1.781,5.293,4.386,5.293.925,0,3.307-2.069,4.262-3.464a14.084,14.084,0,0,0,.989-1.53,15.791,15.791,0,0,0,.469,4.155c.251.894,3.447,4.246,4.4,4.358a3.3,3.3,0,0,0,1.794-.5c.975-.709,2.169-4.945,2.861-8.067.479,2.6,1.818,5.05,4.344,5.05.926,0,3.307-2.069,4.262-3.464a15.727,15.727,0,0,0,1.578-2.67c.091,2.2.727,4.075,2.094,4.737.252.169,4.038,1.09,5.831-.782a4.087,4.087,0,0,0,1.514-3.071c.056-.307-.14-.307,1.009-.169a2.166,2.166,0,0,0,1.95-.816,39.8,39.8,0,0,0-.071,5.173c.14,1.341.447,2.431,1.317,2.85a7.978,7.978,0,0,0,1.794.614c.421.169.728.029,1.066-.363.953-.5.757-6.62.841-6.62.224-.67,1.738-2.905,1.99-3.6.73-1.621.449,1.061.477,1.535.28,2.627-.112,4.526,3.056,5.56,2.074.615,3.336-4.973,3.84-6.425.281-.615-.279-1.174-.5-.364M147.733,13.4c0,.028.029.028.085.028a17.17,17.17,0,0,1-1.346,5.085c-.28.5-.392.306-.392-.029,0-1.117.616-4.581,1.653-5.084m-42.921,9.079c-1.178,1.984-2.747,5.029-3.9,7.151-.9,1.649-.7-.53-.169-2.206a12.766,12.766,0,0,1,2.8-4.973c1.122-1.145,2.047-1.285,1.262.028m31.034-1.564c1.291-.056,1.038,2.765,1.066,3.1a3.478,3.478,0,0,1-2.047,3.6c-.056-1.481-.2-6.65.981-6.7m19.12,0c1.291-.056,1.037,2.765,1.066,3.1a3.478,3.478,0,0,1-2.047,3.6c-.056-1.481-.2-6.65.981-6.7m10.374,5.783c-.365,1.676-.476,4.218-1.291,5.67-3.364,1.175-2.354-9.525-.589-11.509l.14,1.9A5.834,5.834,0,0,0,165.2,26a.677.677,0,0,1,.14.7m.2-2.235a.864.864,0,0,0-.056.2,5.844,5.844,0,0,1-1.654-3.911c-.028-.307.111-.364.309-.28,1.037.531,1.43,2.6,1.4,3.827Z" transform="translate(10.054 1.293)" fill="#fff"/>
      </g>
    </g>
  </g>
</svg>
