<svg width="13" height="9" viewBox="0 0 13 9" fill="none" xmlns="http://www.w3.org/2000/svg">
<path d="M12.9367 7.81059L9.7817 0.588364C9.66953 0.331523 9.4251 0.166992 9.15607 0.166992H6.95352L7.00882 0.689701C7.0201 0.796228 6.93637 0.889214 6.82916 0.889214H6.17104C6.06384 0.889214 5.9801 0.796228 5.99139 0.689701L6.04668 0.166992H3.84413C3.57488 0.166992 3.33045 0.331523 3.21828 0.588364L0.0632972 7.81059C-0.14547 8.28883 0.187655 8.83366 0.689374 8.83366H5.13194L5.36463 6.62908C5.38404 6.44536 5.53887 6.30588 5.72371 6.30588H7.27649C7.46134 6.30588 7.61616 6.44536 7.63557 6.62908L7.86826 8.83366H12.3108C12.8126 8.83366 13.1457 8.28883 12.9367 7.81059ZM5.87719 1.77303C5.88187 1.72866 5.90282 1.68759 5.936 1.65775C5.96917 1.62791 6.01222 1.61141 6.05684 1.61144H6.94359C7.0359 1.61144 7.11354 1.68118 7.12324 1.77303L7.22706 2.75661C7.24399 2.91663 7.11851 3.05588 6.95781 3.05588H6.04285C5.88193 3.05588 5.75666 2.91663 5.77359 2.75661L5.87719 1.77303ZM7.12392 5.58366H5.87606C5.66165 5.58366 5.49441 5.39791 5.51698 5.18463L5.6314 4.1013C5.65081 3.91758 5.80564 3.7781 5.99048 3.7781H7.0095C7.19434 3.7781 7.34917 3.91758 7.36858 4.1013L7.483 5.18463C7.50557 5.39791 7.33833 5.58366 7.12392 5.58366Z" fill="white"/>
</svg>
